<svg width="399" height="454" viewBox="0 0 399 454" fill="none" xmlns="http://www.w3.org/2000/svg">
<path d="M172.229 174.168C183.749 177.816 192.773 183.96 199.301 192.6C205.829 201.048 209.093 211.512 209.093 223.992C209.093 241.656 202.181 255.288 188.357 264.888C174.725 274.296 154.757 279 128.453 279H24.1967V77.4H122.693C147.269 77.4 166.085 82.104 179.141 91.512C192.389 100.92 199.013 113.688 199.013 129.816C199.013 139.608 196.613 148.344 191.813 156.024C187.205 163.704 180.677 169.752 172.229 174.168ZM70.5647 112.536V160.056H116.933C128.453 160.056 137.189 158.04 143.141 154.008C149.093 149.976 152.069 144.024 152.069 136.152C152.069 128.28 149.093 122.424 143.141 118.584C137.189 114.552 128.453 112.536 116.933 112.536H70.5647ZM124.997 243.864C137.285 243.864 146.501 241.848 152.645 237.816C158.981 233.784 162.149 227.544 162.149 219.096C162.149 202.392 149.765 194.04 124.997 194.04H70.5647V243.864H124.997Z" fill="#170000"/>
<path d="M40.7921 301.004C42.5921 301.34 43.9601 302.048 44.8961 303.128C45.8561 304.208 46.3361 305.612 46.3361 307.34C46.3361 309.476 45.5561 311.12 43.9961 312.272C42.4361 313.424 40.1201 314 37.0481 314H25.8161V288.8H36.3281C39.0641 288.8 41.1881 289.364 42.7001 290.492C44.2361 291.596 45.0041 293.18 45.0041 295.244C45.0041 296.684 44.6201 297.896 43.8521 298.88C43.1081 299.864 42.0881 300.572 40.7921 301.004ZM27.6521 290.384V300.428H36.2561C38.4641 300.428 40.1561 300.008 41.3321 299.168C42.5321 298.304 43.1321 297.044 43.1321 295.388C43.1321 293.756 42.5321 292.52 41.3321 291.68C40.1561 290.816 38.4641 290.384 36.2561 290.384H27.6521ZM37.0481 312.416C39.4961 312.416 41.3441 311.996 42.5921 311.156C43.8641 310.292 44.5001 308.972 44.5001 307.196C44.5001 305.42 43.8641 304.112 42.5921 303.272C41.3441 302.432 39.4961 302.012 37.0481 302.012H27.6521V312.416H37.0481ZM68.7624 295.208V314H67.0344V309.968C66.4104 311.288 65.4864 312.32 64.2624 313.064C63.0384 313.784 61.5984 314.144 59.9424 314.144C57.4944 314.144 55.5744 313.46 54.1824 312.092C52.7904 310.724 52.0944 308.756 52.0944 306.188V295.208H53.8944V306.044C53.8944 308.156 54.4344 309.764 55.5144 310.868C56.5944 311.972 58.1184 312.524 60.0864 312.524C62.1984 312.524 63.8664 311.864 65.0904 310.544C66.3384 309.224 66.9624 307.448 66.9624 305.216V295.208H68.7624ZM78.1204 299.312C78.6964 297.944 79.5964 296.9 80.8204 296.18C82.0444 295.436 83.5324 295.064 85.2844 295.064V296.828L84.8524 296.792C82.7644 296.792 81.1324 297.452 79.9564 298.772C78.7804 300.068 78.1924 301.88 78.1924 304.208V314H76.3924V295.208H78.1204V299.312ZM106.988 295.208V311.984C106.988 315.104 106.232 317.408 104.72 318.896C103.208 320.384 100.928 321.128 97.8802 321.128C96.1522 321.128 94.5202 320.864 92.9842 320.336C91.4482 319.808 90.2122 319.076 89.2762 318.14L90.2482 316.772C91.1842 317.636 92.3122 318.308 93.6322 318.788C94.9522 319.268 96.3562 319.508 97.8442 319.508C100.34 319.508 102.188 318.908 103.388 317.708C104.588 316.532 105.188 314.696 105.188 312.2V309.032C104.42 310.4 103.352 311.456 101.984 312.2C100.616 312.944 99.0802 313.316 97.3762 313.316C95.6242 313.316 94.0282 312.932 92.5882 312.164C91.1722 311.372 90.0562 310.28 89.2402 308.888C88.4242 307.496 88.0162 305.924 88.0162 304.172C88.0162 302.42 88.4242 300.848 89.2402 299.456C90.0562 298.064 91.1722 296.984 92.5882 296.216C94.0282 295.448 95.6242 295.064 97.3762 295.064C99.1042 295.064 100.664 295.448 102.056 296.216C103.448 296.984 104.516 298.064 105.26 299.456V295.208H106.988ZM97.5202 311.696C98.9842 311.696 100.304 311.384 101.48 310.76C102.656 310.112 103.568 309.224 104.216 308.096C104.888 306.944 105.224 305.636 105.224 304.172C105.224 302.708 104.888 301.412 104.216 300.284C103.568 299.156 102.656 298.28 101.48 297.656C100.304 297.008 98.9842 296.684 97.5202 296.684C96.0562 296.684 94.7362 297.008 93.5602 297.656C92.4082 298.28 91.4962 299.156 90.8242 300.284C90.1762 301.412 89.8522 302.708 89.8522 304.172C89.8522 305.636 90.1762 306.944 90.8242 308.096C91.4962 309.224 92.4082 310.112 93.5602 310.76C94.7362 311.384 96.0562 311.696 97.5202 311.696ZM130.483 305.036H114.319C114.367 306.5 114.739 307.808 115.435 308.96C116.131 310.088 117.067 310.964 118.243 311.588C119.443 312.212 120.787 312.524 122.275 312.524C123.499 312.524 124.627 312.308 125.659 311.876C126.715 311.42 127.591 310.76 128.287 309.896L129.331 311.084C128.515 312.068 127.483 312.824 126.235 313.352C125.011 313.88 123.679 314.144 122.239 314.144C120.367 314.144 118.699 313.736 117.235 312.92C115.771 312.104 114.619 310.976 113.779 309.536C112.963 308.096 112.555 306.452 112.555 304.604C112.555 302.78 112.939 301.148 113.707 299.708C114.499 298.244 115.579 297.104 116.947 296.288C118.315 295.472 119.851 295.064 121.555 295.064C123.259 295.064 124.783 295.472 126.127 296.288C127.495 297.08 128.563 298.196 129.331 299.636C130.123 301.076 130.519 302.708 130.519 304.532L130.483 305.036ZM121.555 296.648C120.235 296.648 119.047 296.948 117.991 297.548C116.935 298.124 116.083 298.952 115.435 300.032C114.811 301.088 114.451 302.288 114.355 303.632H128.755C128.683 302.288 128.323 301.088 127.675 300.032C127.027 298.976 126.175 298.148 125.119 297.548C124.063 296.948 122.875 296.648 121.555 296.648ZM137.816 299.312C138.392 297.944 139.292 296.9 140.516 296.18C141.74 295.436 143.228 295.064 144.98 295.064V296.828L144.548 296.792C142.46 296.792 140.828 297.452 139.652 298.772C138.476 300.068 137.888 301.88 137.888 304.208V314H136.088V295.208H137.816V299.312Z" fill="#170000"/>
<path d="M396.17 403.6C389.642 411.664 381.674 417.808 372.266 422.032C363.05 426.256 352.874 428.368 341.738 428.368C326.762 428.368 313.226 425.104 301.13 418.576C289.034 412.24 275.21 400.912 259.658 384.592C241.418 382.288 225.098 376.432 210.698 367.024C196.49 357.616 185.354 345.52 177.29 330.736C169.418 315.76 165.482 299.248 165.482 281.2C165.482 261.424 170.186 243.664 179.594 227.92C189.194 211.984 202.346 199.504 219.05 190.48C235.946 181.456 254.858 176.944 275.786 176.944C296.714 176.944 315.53 181.456 332.234 190.48C348.938 199.504 362.09 211.984 371.69 227.92C381.29 243.664 386.09 261.424 386.09 281.2C386.09 304.624 379.466 325.168 366.218 342.832C353.162 360.496 335.786 372.784 314.09 379.696C318.89 384.688 323.498 388.24 327.914 390.352C332.522 392.656 337.418 393.808 342.602 393.808C355.082 393.808 366.026 388.816 375.434 378.832L396.17 403.6ZM212.714 281.2C212.714 293.68 215.402 304.816 220.778 314.608C226.346 324.4 233.93 332.08 243.53 337.648C253.13 343.024 263.882 345.712 275.786 345.712C287.69 345.712 298.442 343.024 308.042 337.648C317.642 332.08 325.13 324.4 330.506 314.608C336.074 304.816 338.858 293.68 338.858 281.2C338.858 268.72 336.074 257.584 330.506 247.792C325.13 238 317.642 230.416 308.042 225.04C298.442 219.472 287.69 216.688 275.786 216.688C263.882 216.688 253.13 219.472 243.53 225.04C233.93 230.416 226.346 238 220.778 247.792C215.402 257.584 212.714 268.72 212.714 281.2Z" fill="#170000"/>
<path d="M387.244 81.5853C386.862 80.8264 385.907 80.4469 385.144 80.2572C380.752 80.2572 342.95 78.7393 342.95 35.1006C342.95 33.7725 341.805 32.6341 340.468 32.6341C339.132 32.6341 337.986 33.7725 337.986 35.1006C337.986 78.7393 300.184 80.2572 295.984 80.2572C295.411 80.2572 294.838 80.4469 294.457 80.8264C294.075 81.0161 293.884 81.3956 293.693 81.5853C293.311 82.3442 293.311 83.2929 293.693 84.0518C294.075 84.8108 295.029 85.38 295.984 85.38C295.984 85.38 295.984 85.38 296.175 85.38C300.566 85.38 338.177 86.8978 338.177 130.536C338.177 131.865 339.323 133.003 340.659 133.003C341.996 133.003 343.141 131.865 343.141 130.536C343.141 87.0876 380.752 85.38 385.144 85.38C386.098 85.38 386.862 84.8108 387.435 84.0518C387.817 83.2929 387.817 82.3442 387.244 81.5853ZM340.468 111.943C334.932 93.918 321.376 86.1389 310.685 82.7237C321.376 79.3085 334.932 71.5294 340.468 53.5048C346.005 71.5294 359.56 79.3085 370.252 82.7237C359.56 86.1389 346.005 93.918 340.468 111.943Z" fill="#170000"/>
<path d="M308.967 32.2547C310.303 32.2547 311.448 31.1163 311.448 29.5984C311.448 28.2703 310.303 27.1319 308.967 27.1319C306.675 27.1319 286.056 26.3729 286.056 2.46653C286.056 1.1384 284.911 0 283.574 0C282.238 0 281.092 1.1384 281.092 2.46653C281.092 26.3729 260.473 27.1319 258.182 27.1319C257.991 27.1319 257.991 27.1319 257.991 27.1319C256.654 27.3216 255.7 28.2703 255.7 29.5984C255.7 30.9265 256.845 32.0649 258.182 32.0649C260.664 32.0649 281.092 32.8239 281.092 56.7303C281.092 58.0584 282.238 59.1968 283.574 59.1968C284.72 59.3865 285.865 58.2481 285.865 56.92C285.865 33.0136 306.485 32.2547 308.776 32.2547H308.967ZM283.383 43.0695C280.329 35.8596 274.792 31.8752 269.637 29.5984C275.174 27.3216 280.329 22.9577 283.383 16.1273C286.438 23.3372 291.975 27.3216 297.129 29.5984C291.593 31.8752 286.438 36.2391 283.383 43.0695Z" fill="#170000"/>
<path d="M287.011 112.702C284.72 112.702 264.1 111.943 264.1 88.0363C264.1 86.7082 262.955 85.5698 261.618 85.5698C260.282 85.5698 259.136 86.7082 259.136 88.0363C259.136 111.943 238.517 112.702 236.226 112.702C236.035 112.702 236.035 112.702 236.035 112.702C234.698 112.891 233.744 113.84 233.744 115.168C233.744 116.496 234.889 117.635 236.226 117.635C238.708 117.635 259.136 118.394 259.136 142.3C259.136 143.628 260.282 144.767 261.618 144.767C262.764 145.146 263.909 144.008 263.909 142.49C263.909 118.583 284.529 117.824 286.82 117.824H287.011C288.347 117.824 289.493 116.686 289.493 115.168C289.493 113.84 288.347 112.702 287.011 112.702ZM261.427 128.829C258.182 121.619 252.836 117.635 247.681 115.358C253.218 113.081 258.373 108.717 261.427 101.887C264.482 109.097 270.019 113.081 275.174 115.358C269.637 117.635 264.482 121.999 261.427 128.829Z" fill="#170000"/>
<path d="M148.447 355.57C147.26 355.394 146.206 354.99 145.284 354.359C144.362 353.728 143.6 352.895 142.999 351.859C142.302 350.657 141.936 349.307 141.901 347.809C141.878 346.332 142.185 344.513 142.823 342.353C141.585 340.219 140.947 338.018 140.909 335.748C140.904 333.487 141.464 331.386 142.589 329.444C143.715 327.502 145.321 325.933 147.407 324.737C149.494 323.542 151.664 322.947 153.919 322.952C156.187 322.979 158.299 323.577 160.256 324.746C162.234 325.904 163.843 327.55 165.081 329.684C166.319 331.818 166.956 334.02 166.994 336.289C167.032 338.559 166.488 340.665 165.363 342.607C164.25 344.57 162.64 346.155 160.532 347.362C158.654 348.438 156.699 349.02 154.665 349.109C152.664 349.206 150.744 348.843 148.904 348.02C147.085 347.185 145.507 345.95 144.169 344.315C143.325 347.173 143.384 349.43 144.345 351.088C145.319 352.766 146.847 353.795 148.93 354.175L148.447 355.57ZM148.327 326.322C146.532 327.351 145.141 328.714 144.152 330.412C143.184 332.098 142.699 333.922 142.697 335.883C142.728 337.853 143.272 339.75 144.33 341.573C145.387 343.396 146.76 344.804 148.448 345.797C150.157 346.778 151.988 347.275 153.942 347.287C155.916 347.288 157.8 346.774 159.595 345.746C161.389 344.718 162.77 343.361 163.738 341.675C164.727 339.976 165.212 338.153 165.193 336.203C165.195 334.242 164.667 332.35 163.61 330.527C162.552 328.704 161.163 327.291 159.442 326.29C157.754 325.297 155.923 324.8 153.948 324.799C151.995 324.787 150.121 325.294 148.327 326.322Z" fill="#170000"/>
<path d="M182.39 363.457L168.266 375.878L167.117 374.589L170.148 371.924C168.741 372.331 167.352 372.323 165.979 371.902C164.625 371.464 163.397 370.628 162.297 369.392C160.671 367.566 159.909 365.681 160.012 363.738C160.116 361.795 161.132 359.975 163.063 358.278L171.315 351.02L172.511 352.363L164.367 359.526C162.779 360.922 161.93 362.387 161.817 363.923C161.705 365.458 162.303 366.96 163.61 368.429C165.014 370.005 166.618 370.813 168.423 370.854C170.245 370.913 171.994 370.204 173.672 368.729L181.194 362.114L182.39 363.457Z" fill="#170000"/>
<path d="M196.115 387.87L183.441 377.833C182.563 379.005 182.037 380.256 181.862 381.587C181.702 382.899 181.888 384.164 182.42 385.381C182.971 386.612 183.829 387.69 184.996 388.614C185.956 389.374 186.975 389.906 188.055 390.21C189.168 390.51 190.267 390.539 191.354 390.297L191.429 391.872C190.174 392.133 188.892 392.082 187.583 391.719C186.293 391.371 185.083 390.75 183.954 389.856C182.487 388.693 181.434 387.339 180.796 385.794C180.159 384.248 179.961 382.653 180.203 381.008C180.464 379.378 181.173 377.842 182.328 376.401C183.469 374.978 184.791 373.944 186.294 373.297C187.831 372.647 189.391 372.428 190.974 372.641C192.557 372.854 194.016 373.489 195.352 374.548C196.688 375.606 197.628 376.87 198.171 378.341C198.749 379.808 198.888 381.342 198.589 382.942C198.31 384.557 197.599 386.076 196.459 387.499L196.115 387.87ZM194.361 375.783C193.326 374.963 192.207 374.46 191.004 374.272C189.816 374.066 188.63 374.183 187.446 374.623C186.297 375.059 185.264 375.772 184.348 376.76L195.638 385.702C196.423 384.608 196.891 383.449 197.043 382.223C197.196 380.997 197.046 379.822 196.593 378.698C196.14 377.574 195.396 376.603 194.361 375.783Z" fill="#170000"/>
<path d="M218.809 401.208L204.629 393.409C203.96 394.71 203.651 396.031 203.701 397.372C203.764 398.692 204.159 399.908 204.887 401.02C205.637 402.143 206.664 403.064 207.969 403.782C209.043 404.372 210.138 404.728 211.253 404.849C212.401 404.961 213.49 404.807 214.521 404.389L214.859 405.93C213.665 406.395 212.392 406.556 211.041 406.415C209.711 406.285 208.414 405.873 207.151 405.178C205.508 404.275 204.244 403.114 203.356 401.696C202.468 400.277 202.006 398.737 201.969 397.075C201.953 395.425 202.394 393.794 203.292 392.181C204.178 390.589 205.308 389.35 206.682 388.464C208.088 387.569 209.589 387.095 211.186 387.043C212.782 386.991 214.328 387.376 215.823 388.198C217.318 389.02 218.456 390.111 219.239 391.472C220.054 392.823 220.448 394.312 220.422 395.939C220.417 397.578 219.972 399.193 219.085 400.785L218.809 401.208ZM215.053 389.58C213.895 388.943 212.707 388.632 211.489 388.646C210.283 388.639 209.133 388.951 208.04 389.581C206.979 390.201 206.08 391.075 205.343 392.201L217.975 399.149C218.565 397.941 218.833 396.72 218.777 395.486C218.722 394.252 218.377 393.118 217.742 392.085C217.107 391.052 216.211 390.217 215.053 389.58Z" fill="#170000"/>
<path d="M240.281 398.95C242.513 399.707 244.056 400.951 244.911 402.683C245.766 404.414 245.777 406.492 244.945 408.915L241.387 419.279L239.679 418.7L243.19 408.472C243.875 406.479 243.883 404.787 243.216 403.398C242.572 402.016 241.339 401.016 239.517 400.398C237.421 399.688 235.556 399.751 233.921 400.587C232.286 401.424 231.107 402.896 230.384 405.002L227.141 414.448L225.433 413.869L231.522 396.132L233.162 396.688L231.844 400.528C232.887 399.491 234.132 398.825 235.58 398.533C237.051 398.247 238.618 398.387 240.281 398.95Z" fill="#170000"/>
</svg>
